<svg id="圖層_1" data-name="圖層 1" xmlns="http://www.w3.org/2000/svg" viewBox="0 0 260.42 46.69"><defs><style>.cls-1{fill:#ea8f8b;}.cls-2{fill:#eda9a2;}.cls-3{fill:#f4c8c1;}.cls-4{fill:#e85952;}.cls-5{fill:#fff;}.cls-6{fill:#ee9ca7;stroke:#fff;stroke-miterlimit:10;}</style></defs><g id="圖層_2" data-name="圖層 2"><g id="Capa_1" data-name="Capa 1"><path class="cls-1" d="M2.66,3.15C2.31,9-.49,25,8.87,25.46l14.82-7.88C23.8,7.22,11.66,3.52,2.66,3.15Z" transform="translate(-2 -3.15)"/><path class="cls-2" d="M5.84,7.21c-2.41,14.17,5.29,17.05,5.29,17.05l9.44-10C13.28,6.4,5.84,7.21,5.84,7.21Z" transform="translate(-2 -3.15)"/><path class="cls-1" d="M61.81,3.15C62.15,9,65,25,55.61,25.46L40.79,17.58C40.68,7.22,52.81,3.52,61.81,3.15Z" transform="translate(-2 -3.15)"/><path class="cls-2" d="M58.64,7.21c2.4,14.17-5.29,17.05-5.29,17.05l-9.44-10C51.2,6.4,58.64,7.21,58.64,7.21Z" transform="translate(-2 -3.15)"/><path class="cls-3" d="M56.86,20.64c-5-7.34-15.26-10.53-24.62-10.29-9.36-.24-19.59,3-24.62,10.29C-.15,32,9.08,44.21,20.56,48a39.23,39.23,0,0,0,11.68,1.9A39.34,39.34,0,0,0,43.93,48C55.39,44.21,64.63,32,56.86,20.64Z" transform="translate(-2 -3.15)"/><path class="cls-4" d="M14.37,41.07c-1.18-.34-1.91-1.08-1.3-2.23,1-2,6.38-2.14,6.86.16C20.34,41,16.57,41.7,14.37,41.07Z" transform="translate(-2 -3.15)"/><path class="cls-4" d="M50.36,40.76c1.19-.34,1.92-1.07,1.3-2.23-1-2-6.38-2.13-6.86.17C44.4,40.66,48.16,41.4,50.36,40.76Z" transform="translate(-2 -3.15)"/><circle class="cls-5" cx="19.03" cy="28.73" r="5.19"/><circle cx="19.03" cy="28.73" r="3.4"/><circle class="cls-5" cx="21.44" cy="26.59" r="1.7"/><circle class="cls-5" cx="41.44" cy="28.73" r="5.19"/><circle cx="41.44" cy="28.73" r="3.4"/><circle class="cls-5" cx="43.85" cy="26.59" r="1.7"/><path d="M37.59,42c-1.75,5.56-8.82,4.61-10.85-.21-.44-1-2-.15-1.54.89a8.18,8.18,0,0,0,7.28,5,7,7,0,0,0,6.82-5.18C39.64,41.35,37.94,40.89,37.59,42Z" transform="translate(-2 -3.15)"/><path class="cls-2" d="M18,19.2c1.89-.06,3.88,1.41,1.67,3.44-1.41,1.3-4.21.8-4.07-1.38A2.25,2.25,0,0,1,18,19.2Z" transform="translate(-2 -3.15)"/><path class="cls-2" d="M46.53,19.2c-1.89-.05-3.89,1.41-1.67,3.44,1.41,1.3,4.21.8,4.06-1.38A2.23,2.23,0,0,0,46.53,19.2Z" transform="translate(-2 -3.15)"/><path class="cls-1" d="M40.89,35.79c-1.94-5.38-15.31-5.42-17.27,0C20.87,43.46,43.41,42.79,40.89,35.79Zm-5-7.44Z" transform="translate(-2 -3.15)"/><circle cx="25.25" cy="33.33" r="1.49"/><circle cx="35.23" cy="33.33" r="1.49"/></g></g><path class="cls-6" d="M82.74,11.26,86,12.92A34.68,34.68,0,0,1,83,17.47a23.85,23.85,0,0,1,1.88,9.94v.74q0,8.2-1.82,10.67a3.52,3.52,0,0,1-2,1.29,16.41,16.41,0,0,1-4.18.28,7.55,7.55,0,0,0-1-3.63,22.74,22.74,0,0,0,3.48,0,1.71,1.71,0,0,0,1-.58c.63-.8,1-3.35,1-7.63a29.28,29.28,0,0,1-4.15,4.27A12.19,12.19,0,0,0,74.71,30a19.62,19.62,0,0,0,5.35-5.19c.35-.52.67-1,1-1.48a19.73,19.73,0,0,0-.67-3A39.53,39.53,0,0,1,77.26,23a11.54,11.54,0,0,0-2.43-2.4l-.09-.06a24.59,24.59,0,0,0,4-3.6,19.14,19.14,0,0,0-3.57-3.88l2.58-2a21,21,0,0,1,3.17,3.17A26,26,0,0,0,82.74,11.26Zm13.81-.12v12a15,15,0,0,0,2.18,7.6,16.31,16.31,0,0,0,6.09,6,18.11,18.11,0,0,0-2.4,3.66,16.18,16.18,0,0,1-6.67-7.5,17,17,0,0,1-1.14-3.2,15.44,15.44,0,0,1-2.89,6.12,16.46,16.46,0,0,1-5.14,4.58,20.57,20.57,0,0,0-2.34-3.51,15.69,15.69,0,0,0,7.45-8.64,14.39,14.39,0,0,0,1-5.14v-12ZM88.21,27.53,85,25.72q1.88-2.84,2.25-8.77l3.47.68c-.36,4.45-1.1,7.59-2.21,9.44C88.42,27.24,88.31,27.39,88.21,27.53ZM100.36,16.8l4,1.23a78.94,78.94,0,0,1-3.63,9.16L97.41,26a45.48,45.48,0,0,0,2.92-9.07A.49.49,0,0,0,100.36,16.8Z" transform="translate(-2 -3.15)"/><path class="cls-6" d="M131.28,36.61a3.4,3.4,0,0,1-1.17,3l-.46.25a13.34,13.34,0,0,1-4.86.58h-.34A12.46,12.46,0,0,0,123.31,37v.77h-9.1v1.6H110.7v-9.2h12.61V37c1,.06,2.14.09,3.54.09.41-.06.62-.25.65-.56V28.7H107V25.5h28.51v3.2h-4.27Zm-6.8-11.32a11.92,11.92,0,0,0-1.14-3.17c1,0,2.14.06,3.54.06.41,0,.63-.2.65-.49V15.57H107.72V12.43h27v3.14h-3.5v6.18a3,3,0,0,1-1.11,2.77l-.52.24A16.33,16.33,0,0,1,124.48,25.29Zm-1.23-8.4v7H111.16v-7Zm-9,18.24h5.53V32.85h-5.53Zm5.56-15.81h-5.32V21.5h5.32Z" transform="translate(-2 -3.15)"/><path class="cls-6" d="M141.89,12.89h21.87V40h-4V38h-14v2.06h-3.88Zm17.84,3.78h-14v6.77h14Zm-14,17.54h14v-7h-14Z" transform="translate(-2 -3.15)"/><path class="cls-6" d="M198.37,20h-8.55q.74,9.87,2.77,14.27c.67,1.44,1.38,2.16,2.12,2.18s1.06-1.86,1.2-5.6v-.06A8.47,8.47,0,0,0,199.08,33l.09,0c-.31,3.42-1,5.6-2,6.52a4.06,4.06,0,0,1-2.8.89q-5.75,0-7.81-13.69-.47-3.07-.71-6.7H170.19V16.37h15.48c-.07-1.71-.1-3.44-.1-5.2h4c0,1.95,0,3.68,0,5.2h5A22.92,22.92,0,0,0,190.93,13l2.49-2a23.34,23.34,0,0,1,4.12,3.48l-2.15,1.88h3Zm-18.49,7.19v6.93L185.73,33l.27,3.35q-.76.18-14.76,3.14l-1.05-3.75,6-1v-7.6h-4.77V23.59h13.54v3.63Z" transform="translate(-2 -3.15)"/><path class="cls-6" d="M223.56,23.78a28.24,28.24,0,0,1-2.76,2.8h8V40.3H225.2v-.89h-5v1H216.8V29.78c-.23.16-.68.46-1.36.89a11.54,11.54,0,0,1,.65,1l-2.28,2.64a19.9,19.9,0,0,0-2.12-3.17c.06,3.31-.35,5.66-1.23,7.08a1.58,1.58,0,0,1-.25.34,4.73,4.73,0,0,1-3.69,1.84h-.09q-.37,0-1.26,0l-1.26,0a7.49,7.49,0,0,0-.83-3.38c1.08.1,1.94.15,2.55.15a1.76,1.76,0,0,0,1.57-.74l.18-.31c.52-.82.77-2.31.77-4.49a23.82,23.82,0,0,1-5.57,4.43,11.69,11.69,0,0,0-1.9-3,17.36,17.36,0,0,0,6-4.34,13.29,13.29,0,0,0,1.17-1.45c-.15-.77-.25-1.31-.31-1.59a24.58,24.58,0,0,1-4.62,4.09A12.13,12.13,0,0,0,200.8,27a16.7,16.7,0,0,0,4.86-3.78c.29-.33.54-.64.77-.93l-.61-1.14a19.45,19.45,0,0,1-2.62,2.28,15.05,15.05,0,0,0-2.4-2.71,17,17,0,0,0,4.92-4.58h-4.27V12.74h12.89v3.41h-4.56A22.89,22.89,0,0,1,208,18.8a15.77,15.77,0,0,1,2,3.56,31.15,31.15,0,0,0,2.61-3.63l3,1.79h2.55v-2.8h-3.11V14.49h3.11V11h3.45v3.45h3.2v1.84a33.16,33.16,0,0,0,1.84-3.81l3.29,1a41,41,0,0,1-3.84,7h4.37v3.26Zm-9.65-.92c-1,1-1.91,1.92-2.83,2.76,1.12,1.15,1.81,1.87,2.06,2.16a29.42,29.42,0,0,0,5.69-4h-4.92Zm11.29,6.92h-5v1.69h5Zm0,6.37V34.42h-5v1.73Zm-3.57-15.63H222a23.59,23.59,0,0,0,2-2.8h-2.33Z" transform="translate(-2 -3.15)"/><path class="cls-6" d="M242,24.21l.46,3.35c-.24.09-.61.2-1.1.34l-1.91.59v8c0,1.56-.33,2.6-1,3.11a1.33,1.33,0,0,1-.24.19,9.48,9.48,0,0,1-4.37.67A13.12,13.12,0,0,0,233,37a23.16,23.16,0,0,0,2.58,0,.52.52,0,0,0,.52-.53v-7c-.86.25-1.85.52-3,.83l-.8-3.57c.43-.08,1.17-.25,2.22-.52l1.56-.4V20.4h-3.29V17h3.29V11h3.42V17h2.86V20.4h-2.86v4.52Zm5.39-8.06V11h3.35V24.27c0,4.47-.51,7.92-1.51,10.34a13.65,13.65,0,0,1-4.64,5.81A14.18,14.18,0,0,0,242,38l-.09-.06a11.77,11.77,0,0,0,4.28-5.32c-1.26.51-2.49,1-3.7,1.44l-1.41-3.23c1.29-.32,3.31-.93,6.06-1.81.1-.9.17-1.9.21-3H243V22.76h4.37V19.5h-4.65V16.15ZM261.92,29.5v3.35h-5.44v7.54h-3.54V11h3.54v5.14h4.92V19.5h-4.92v3.26h4.61V26h-4.61V29.5Z" transform="translate(-2 -3.15)"/></svg>